<?xml version="1.0" encoding="UTF-8"?>
<svg version="1.1" xmlns="http://www.w3.org/2000/svg" width="67" height="67">
<path d="M0 0 C4.89434213 4.09526587 9.70720334 8.26357085 14 13 C14 13.33 14 13.66 14 14 C11.03 14 8.06 14 5 14 C5 20.6 5 27.2 5 34 C9.2384375 33.7834375 9.2384375 33.7834375 13.5625 33.5625 C21.91080914 33.35638722 21.91080914 33.35638722 25.578125 35.5234375 C27.3125 37.4375 27.3125 37.4375 28.7421875 39.375 C29.98829006 41.30226322 29.98829006 41.30226322 32.9375 41.9375 C33.618125 41.958125 34.29875 41.97875 35 42 C35 42.33 35 42.66 35 43 C30.3918813 43.07436755 25.78411486 43.12870394 21.17553711 43.16479492 C19.60906893 43.17984622 18.04264264 43.20029207 16.47631836 43.22631836 C14.21978394 43.26286433 11.96380847 43.27976261 9.70703125 43.29296875 C9.01100296 43.30845261 8.31497467 43.32393646 7.59785461 43.33988953 C3.21829975 43.34139243 0.48165496 42.68834581 -3 40 C-4.30475618 37.39048764 -4.11301572 35.47298715 -4.09765625 32.5546875 C-4.09443359 31.47832031 -4.09121094 30.40195312 -4.08789062 29.29296875 C-4.07951172 28.16503906 -4.07113281 27.03710938 -4.0625 25.875 C-4.05798828 24.73933594 -4.05347656 23.60367188 -4.04882812 22.43359375 C-4.03701615 19.62234362 -4.02054507 16.8111977 -4 14 C-6.64 14 -9.28 14 -12 14 C-10.41332422 10.09714233 -7.86649519 7.66479018 -4.875 4.75 C-3.96492187 3.85796875 -3.05484375 2.9659375 -2.1171875 2.046875 C-1.41851562 1.37140625 -0.71984375 0.6959375 0 0 Z " fill="#B05C99" transform="translate(12,12)"/>
<path d="M0 0 C4.6081187 -0.07436755 9.21588514 -0.12870394 13.82446289 -0.16479492 C15.39093107 -0.17984622 16.95735736 -0.20029207 18.52368164 -0.22631836 C20.78021606 -0.26286433 23.03619153 -0.27976261 25.29296875 -0.29296875 C25.98899704 -0.30845261 26.68502533 -0.32393646 27.40214539 -0.33988953 C31.78170025 -0.34139243 34.51834504 0.31165419 38 3 C39.30475618 5.60951236 39.11301572 7.52701285 39.09765625 10.4453125 C39.09443359 11.52167969 39.09121094 12.59804688 39.08789062 13.70703125 C39.07532227 15.39892578 39.07532227 15.39892578 39.0625 17.125 C39.05798828 18.26066406 39.05347656 19.39632813 39.04882812 20.56640625 C39.03701615 23.37765638 39.02054507 26.1888023 39 29 C41.64 29 44.28 29 47 29 C45.41332422 32.90285767 42.86649519 35.33520982 39.875 38.25 C38.96492188 39.14203125 38.05484375 40.0340625 37.1171875 40.953125 C36.41851562 41.62859375 35.71984375 42.3040625 35 43 C30.10565787 38.90473413 25.29279666 34.73642915 21 30 C21 29.67 21 29.34 21 29 C23.97 29 26.94 29 30 29 C30 22.4 30 15.8 30 9 C27.174375 9.144375 24.34875 9.28875 21.4375 9.4375 C13.08919086 9.64361278 13.08919086 9.64361278 9.421875 7.4765625 C7.6875 5.5625 7.6875 5.5625 6.2578125 3.625 C5.01170994 1.69773678 5.01170994 1.69773678 2.0625 1.0625 C1.381875 1.041875 0.70125 1.02125 0 1 C0 0.67 0 0.34 0 0 Z " fill="#B05C99" transform="translate(20,12)"/>
</svg>
